<?xml version="1.0" standalone="no"?>
<!DOCTYPE svg PUBLIC "-//W3C//DTD SVG 20010904//EN"
 "http://www.w3.org/TR/2001/REC-SVG-20010904/DTD/svg10.dtd">
<svg version="1.0" xmlns="http://www.w3.org/2000/svg"
 width="960.000000pt" height="960.000000pt" viewBox="0 0 960.000000 960.000000"
 preserveAspectRatio="xMidYMid meet">
<metadata>
Created by potrace 1.14, written by Peter Selinger 2001-2017
</metadata>
<g transform="translate(0.000000,960.000000) scale(0.100000,-0.100000)"
fill="#000000" stroke="none">
<path d="M1707 8110 c-205 -26 -400 -131 -529 -286 -57 -69 -131 -213 -153
-299 -91 -355 35 -760 332 -1066 l93 -96 -25 -83 c-87 -289 -129 -646 -142
-1188 l-6 -283 -81 -68 c-378 -318 -612 -686 -693 -1086 -13 -67 -17 -135 -17
-270 0 -204 17 -306 80 -486 285 -819 1305 -1489 2709 -1779 287 -59 593 -102
950 -132 202 -17 940 -17 1150 0 601 49 1122 148 1605 304 1203 390 1958 1044
2117 1833 27 135 24 415 -5 552 -84 391 -317 752 -687 1063 l-85 72 0 147 c0
478 -46 940 -122 1231 -16 63 -32 125 -35 138 -4 18 10 38 76 102 226 222 362
500 386 790 15 182 -37 389 -136 539 -320 486 -1053 473 -1546 -27 l-78 -80
-131 44 c-508 167 -1114 244 -1934 244 -813 0 -1418 -76 -1926 -241 l-121 -39
-92 89 c-179 176 -400 298 -628 345 -90 19 -242 27 -326 16z m1861 -1006 c232
-47 421 -151 583 -321 151 -159 243 -341 284 -563 12 -66 15 -143 13 -340 l-3
-255 -95 -5 c-59 -4 -106 -12 -125 -22 l-31 -16 0 156 c-1 136 -5 170 -27 255
-63 236 -184 399 -357 481 -83 39 -205 48 -296 21 -182 -52 -330 -220 -405
-460 -63 -202 -47 -487 37 -675 l26 -58 56 13 c181 43 427 85 660 114 228 29
208 33 208 -42 0 -69 26 -137 67 -174 36 -34 456 -284 503 -300 l44 -15 -2
-246 -3 -247 -129 -82 c-349 -222 -727 -384 -1006 -432 -223 -39 -510 -56
-690 -43 -252 19 -506 136 -733 335 -66 59 -86 71 -115 71 -39 0 -82 -40 -82
-75 0 -28 52 -239 94 -381 80 -271 158 -443 276 -608 158 -221 290 -369 448
-501 94 -78 95 -79 133 -175 169 -419 533 -724 986 -827 96 -21 115 -22 873
-25 814 -3 852 -2 1023 43 408 106 752 409 913 804 40 97 47 107 101 149 78
61 274 259 349 352 216 268 311 450 410 788 42 142 94 353 94 381 0 35 -43 75
-82 75 -29 0 -49 -12 -115 -71 -226 -199 -479 -314 -733 -334 -278 -22 -686
23 -930 102 -269 88 -635 273 -857 432 l-43 30 0 243 0 243 38 10 c39 11 472
268 509 303 41 39 67 106 66 175 -1 75 -20 71 209 42 237 -29 474 -70 660
-114 l56 -13 26 58 c65 144 92 366 66 541 -14 98 -66 250 -112 327 -46 77
-132 168 -200 213 -122 79 -292 92 -418 32 -173 -81 -295 -245 -357 -480 -22
-85 -26 -119 -27 -255 l0 -156 -31 16 c-19 10 -66 18 -125 22 l-95 5 -3 255
c-3 270 6 353 50 490 83 262 278 493 528 628 156 84 316 122 510 122 297 0
541 -97 753 -299 173 -165 281 -366 322 -598 20 -117 21 -551 1 -673 -22 -136
-78 -285 -152 -402 -13 -21 -24 -41 -24 -46 0 -4 48 -28 108 -51 135 -55 387
-175 395 -188 4 -6 99 -66 213 -134 113 -68 236 -148 272 -177 390 -310 610
-652 659 -1027 29 -222 -12 -449 -122 -670 -78 -157 -170 -280 -325 -436 -329
-330 -792 -596 -1385 -797 -193 -65 -384 -118 -580 -161 -55 -12 -118 -26
-140 -31 -169 -38 -549 -91 -825 -116 -151 -14 -291 -18 -620 -17 -517 1 -730
17 -1210 94 -122 20 -167 29 -355 70 -323 70 -652 175 -945 300 -714 305
-1221 743 -1397 1209 -226 596 39 1209 724 1677 253 173 417 263 688 378 88
37 162 70 165 72 2 2 -4 16 -13 31 -76 119 -141 286 -163 422 -20 122 -19 556
1 673 41 233 148 432 322 598 155 148 326 237 538 282 97 21 324 21 423 1z
m1161 -4458 l1 -828 -352 4 c-308 5 -365 8 -448 26 -246 54 -437 157 -611 331
-149 149 -257 332 -309 524 -14 55 -150 926 -150 966 0 5 105 11 233 14 127 3
286 13 352 22 456 61 835 197 1158 415 l112 75 6 -360 c3 -198 7 -733 8 -1189z
m496 1338 c199 -103 452 -190 688 -238 204 -41 356 -57 600 -63 125 -3 227 -9
227 -14 0 -40 -136 -911 -150 -966 -98 -364 -388 -677 -750 -808 -161 -58
-226 -66 -597 -72 l-341 -5 -6 53 c-3 30 -7 565 -10 1190 l-6 1137 123 -82
c67 -44 167 -104 222 -132z"/>
</g>
</svg>
