<svg width="120" height="100" viewBox="0 0 120 100" fill="none" xmlns="http://www.w3.org/2000/svg">
<path fill-rule="evenodd" clip-rule="evenodd" d="M104 55.1517C107.827 58.8648 110 63.117 110 67.6357C110 82.1395 87.6142 93.8971 60 93.8971C32.3858 93.8971 10 82.1395 10 67.6357C10 63.117 12.173 58.8647 16 55.1516C17.1024 54.082 18.3421 53.0572 19.7065 52.0836C19.8037 52.0143 19.9016 51.9452 20 51.8763C20.0001 50.5958 20.0006 49.3306 20.0113 48.0836C20.0141 47.7511 20.0177 47.4198 20.0221 47.0899C20.0925 41.8875 20.3868 37.0237 21.6187 32.7272C21.9948 31.4154 22.4583 30.1565 23.0295 28.9569C21.9533 28.3852 20.9126 27.6226 19.9677 26.6777C19.9067 26.6167 19.8465 26.5553 19.7871 26.4936C16.0387 22.6001 15.3168 17.1865 18.2 14.3033C21.1108 11.3925 26.6007 12.1562 30.5017 15.999C30.526 16.0229 30.5502 16.047 30.5743 16.0711C31.5569 17.0536 32.3423 18.1397 32.921 19.2616C34.0548 18.7053 35.2881 18.1951 36.6296 17.7337C42.2813 15.79 49.8539 14.7135 60 14.7135C70.2861 14.7135 77.9271 15.8199 83.6032 17.8146C84.9403 18.2845 86.1683 18.8037 87.2962 19.3693C87.8757 18.2173 88.6726 17.1007 89.6766 16.0923C89.6836 16.0852 89.6907 16.0782 89.6977 16.0711C93.603 12.1659 99.1432 11.3744 102.072 14.3033C105.001 17.2318 104.21 22.7706 100.306 26.6758C100.306 26.6764 100.305 26.6771 100.304 26.6777C99.2956 27.6864 98.1778 28.4874 97.0241 29.0702C97.5873 30.2707 98.0439 31.5301 98.4141 32.842C99.6185 37.1103 99.9082 41.9338 99.9779 47.0899C99.9824 47.4198 99.986 47.7511 99.9888 48.0836C99.9995 49.3306 100 50.5958 100 51.8764C100.098 51.9452 100.196 52.0143 100.293 52.0836C101.658 53.0572 102.898 54.0821 104 55.1517ZM103.998 49.866C109.987 54.5527 114 60.5784 114 67.6357C114 77.1159 106.758 84.7345 97.2153 89.7466C87.4859 94.8568 74.3216 97.8971 60 97.8971C45.6784 97.8971 32.5141 94.8568 22.7847 89.7466C13.242 84.7345 6 77.1159 6 67.6357C6 60.5784 10.0134 54.5527 16.0016 49.8659C16.0121 45.4918 16.0898 41.0878 16.6636 36.9837C16.9742 34.7618 17.4375 32.5608 18.1411 30.4326C17.7975 30.139 17.4631 29.83 17.1393 29.5061C14.6339 27.0007 13.0149 23.8655 12.5612 20.6901C12.1074 17.5132 12.8172 14.0292 15.3715 11.4749C17.9259 8.92056 21.4098 8.21075 24.5867 8.66459C27.7621 9.11822 30.8973 10.7372 33.4028 13.2427C33.742 13.5819 34.0649 13.9326 34.3709 14.2934C40.7819 11.9082 49.1719 10.7135 60 10.7135C70.9449 10.7135 79.3987 11.9341 85.8358 14.371C86.161 13.9828 86.5059 13.6061 86.8693 13.2427C89.3747 10.7372 92.5099 9.11823 95.6854 8.6646C98.8623 8.21075 102.346 8.92057 104.901 11.4749C107.455 14.0292 108.165 17.5132 107.711 20.6901C107.257 23.8655 105.638 27.0007 103.133 29.5061C102.742 29.8966 102.336 30.2656 101.918 30.6119C102.588 32.6844 103.035 34.8241 103.337 36.9837C103.91 41.0878 103.988 45.4918 103.998 49.866Z" fill="black"/>
<ellipse cx="25.271" cy="21.3744" rx="10" ry="7.5" transform="rotate(45 25.271 21.3744)" fill="#936031"/>
<ellipse cx="95.001" cy="21.3744" rx="10" ry="7.5" transform="rotate(-45 95.001 21.3744)" fill="#936031"/>
<path d="M100 52.0836C100 31.4446 100 14.7135 60 14.7135C20 14.7135 20 31.4446 20 52.0836H100Z" fill="#936031"/>
<rect x="28.4019" y="20.9987" width="27.189" height="30.9568" rx="13.5945" fill="white"/>
<rect x="64.4092" y="20.9987" width="27.189" height="30.9568" rx="13.5945" fill="white"/>
<ellipse cx="74.5928" cy="38.1624" rx="7.06542" ry="9.59103" fill="black"/>
<ellipse cx="45.4072" cy="38.1624" rx="7.06542" ry="9.59103" fill="black"/>
<ellipse cx="60" cy="67.6357" rx="50" ry="26.2614" fill="#C48E5C"/>
<path d="M25.4424 57.8576C39.1618 71.4073 60.0001 55.3343 60.0001 55.3343C60.0001 55.3343 80.8384 71.4073 94.5578 57.8576C93.8581 61.034 92.4608 66.4586 90.3895 69.1638C87.086 74.081 82.3764 78.4689 75.9586 80.4838H44.0416C37.6238 78.4689 32.9143 74.081 29.6107 69.1638C27.5394 66.4586 26.1421 61.034 25.4424 57.8576Z" fill="black"/>
<path fill-rule="evenodd" clip-rule="evenodd" d="M60.0001 45.0882C60.5524 45.0882 61.0001 45.5359 61.0001 46.0882L61.0001 54.8296C61.1323 54.9248 61.2968 55.0415 61.4915 55.1763C62.0724 55.5785 62.9211 56.141 63.9833 56.7756C66.1113 58.0468 69.0783 59.5964 72.4524 60.7291C79.2237 63.0022 87.3889 63.5324 93.8551 57.1461C94.1704 56.8348 94.6529 56.768 95.0409 56.9821C95.4289 57.1962 95.6297 57.64 95.5344 58.0728C95.181 59.6769 94.6481 61.8649 93.9369 64.0031C93.2374 66.106 92.3346 68.2574 91.2028 69.7466C87.8114 74.7855 82.939 79.3405 76.2581 81.4379L76.1119 81.4838H43.8883L43.7421 81.4379C37.0613 79.3405 32.1889 74.7855 28.7975 69.7466C27.6657 68.2574 26.7629 66.106 26.0634 64.0031C25.3521 61.8649 24.8192 59.6769 24.4659 58.0728C24.3705 57.64 24.5714 57.1962 24.9593 56.9821C25.3473 56.768 25.8299 56.8348 26.1452 57.1461C32.6113 63.5324 40.7765 63.0022 47.5478 60.7291C50.9219 59.5964 53.8889 58.0468 56.0169 56.7756C57.0791 56.141 57.9279 55.5785 58.5087 55.1763C58.7034 55.0415 58.8679 54.9248 59.0001 54.8296L59.0001 46.0882C59.0001 45.5359 59.4478 45.0882 60.0001 45.0882ZM60.0001 56.5733C59.8952 56.6478 59.7773 56.7306 59.6471 56.8207C59.0348 57.2446 58.1484 57.8319 57.0426 58.4925C54.8347 59.8115 51.7347 61.4333 48.1843 62.6251C41.868 64.7455 33.9302 65.5562 27.1404 60.6147C27.3801 61.5102 27.6538 62.4479 27.9611 63.3718C28.649 65.4397 29.4743 67.3407 30.4047 68.5559L30.4235 68.5805L30.4407 68.6062C33.6305 73.3539 38.1261 77.5347 44.1966 79.4838H75.8037C81.8741 77.5347 86.3697 73.3539 89.5595 68.6062L89.5768 68.5805L89.5956 68.5559C90.526 67.3407 91.3512 65.4397 92.0391 63.3718C92.3465 62.4479 92.6202 61.5102 92.8599 60.6147C86.07 65.5562 78.1322 64.7455 71.8159 62.6251C68.2656 61.4333 65.1655 59.8115 62.9576 58.4925C61.8519 57.8319 60.9654 57.2446 60.3531 56.8207C60.2229 56.7306 60.1051 56.6478 60.0001 56.5733Z" fill="black"/>
<path d="M67.9335 88.1976H60.194H52.0667C44.5013 88.1976 37.9698 82.8987 36.4103 75.4958L34.5443 62.9042C51.156 64.0257 58.9661 56.1786 59.8061 55.4745H60H60.194C61.034 56.1786 68.8442 64.0257 85.4559 62.9042L83.5898 75.4958C82.0303 82.8987 75.4989 88.1976 67.9335 88.1976Z" fill="white"/>
<path fill-rule="evenodd" clip-rule="evenodd" d="M59.4424 54.4745H60.5577L60.8364 54.7081C60.8834 54.7475 60.9485 54.8056 61.0321 54.8803C61.7375 55.5102 63.7621 57.3181 67.3299 58.9661C71.3196 60.8091 77.2583 62.4554 85.3885 61.9065L86.627 61.8229L84.5746 75.6724L84.5684 75.702C82.9114 83.5676 75.9717 89.1976 67.9335 89.1976H52.0667C44.0284 89.1976 37.0888 83.5676 35.4318 75.702L35.4256 75.6724L33.3731 61.8229L34.6116 61.9065C42.7419 62.4554 48.6805 60.8091 52.6702 58.9661C56.2381 57.3181 58.2627 55.5102 58.968 54.8803C59.0517 54.8056 59.1168 54.7475 59.1637 54.7081L59.4424 54.4745ZM61.0119 57.4751L61.1881 87.1976H67.9335C75.0161 87.1976 81.1321 82.2438 82.6051 75.3188L84.287 63.9701C76.4292 64.305 70.559 62.6608 66.4912 60.7818C63.982 59.6227 62.1653 58.3754 61.0119 57.4751ZM59.1881 87.1976L59.0118 57.4567C57.8596 58.3584 56.0352 59.6148 53.5089 60.7818C49.4412 62.6608 43.5709 64.305 35.7132 63.9701L37.395 75.3188C38.868 82.2438 44.984 87.1976 52.0667 87.1976H59.1881Z" fill="black"/>
<path d="M53.2017 44.4062C51.4659 43.3604 52.2073 40.6931 54.2338 40.6931H65.7662C67.7927 40.6931 68.5342 43.3604 66.7984 44.4062L62.0643 47.2585C60.7945 48.0236 59.2056 48.0236 57.9357 47.2585L53.2017 44.4062Z" fill="#543111"/>
<path fill-rule="evenodd" clip-rule="evenodd" d="M52.6856 45.2627C50.0819 43.694 51.1941 39.6931 54.2338 39.6931H65.7663C68.806 39.6931 69.9182 43.694 67.3145 45.2627L62.5804 48.1151C60.9931 49.0715 59.007 49.0715 57.4197 48.1151L52.6856 45.2627ZM54.2338 41.6931C53.2206 41.6931 52.8499 43.0267 53.7178 43.5497L58.4518 46.402C59.4042 46.9758 60.5959 46.9758 61.5483 46.402L66.2823 43.5497C67.1502 43.0267 66.7795 41.6931 65.7663 41.6931H54.2338Z" fill="black"/>
<path fill-rule="evenodd" clip-rule="evenodd" d="M88.1871 17.6897C88.7941 18.113 89.4812 18.628 89.9289 18.9729C90.3664 19.31 90.4478 19.9379 90.1107 20.3754C89.7736 20.8129 89.1457 20.8943 88.7082 20.5572C88.2751 20.2235 87.615 19.7291 87.043 19.3301C86.7544 19.1288 86.5043 18.9631 86.323 18.8555C86.2795 18.8297 86.2452 18.8103 86.2193 18.7963C85.8796 18.7278 85.5849 18.4843 85.4675 18.1319C85.2929 17.6079 85.5761 17.0416 86.1 16.867C86.3944 16.7689 86.6488 16.832 86.7125 16.8477L86.7138 16.8481C86.8169 16.8736 86.906 16.9095 86.9672 16.9364C87.0932 16.9919 87.2249 17.065 87.3441 17.1358C87.5888 17.2811 87.8862 17.4798 88.1871 17.6897ZM86.1617 18.7671C86.1619 18.7671 86.1621 18.7672 86.1623 18.7673L86.1617 18.7671ZM32.9655 19.3734C32.3934 19.7724 31.7333 20.2668 31.3002 20.6005C30.8628 20.9376 30.2348 20.8562 29.8978 20.4187C29.5607 19.9812 29.6421 19.3533 30.0796 19.0162C30.5273 18.6713 31.2144 18.1563 31.8214 17.733C32.1223 17.5231 32.4197 17.3244 32.6644 17.1791C32.7836 17.1083 32.9152 17.0352 33.0413 16.9797C33.1024 16.9528 33.1915 16.9169 33.2947 16.8914L33.296 16.8911C33.3597 16.8753 33.6141 16.8122 33.9085 16.9103C34.4324 17.0849 34.7156 17.6512 34.541 18.1752C34.4235 18.5276 34.1289 18.7711 33.7891 18.8396C33.7632 18.8537 33.7289 18.873 33.6855 18.8988C33.5041 19.0065 33.254 19.1722 32.9655 19.3734ZM33.8467 18.8104C33.8497 18.8091 33.8494 18.8093 33.8461 18.8107L33.8467 18.8104ZM24.3149 26.6885C24.7367 26.3645 24.8324 25.7626 24.5244 25.3225C24.2076 24.87 23.5841 24.76 23.1317 25.0767C22.9299 25.2179 22.7696 25.4112 22.6622 25.5516C22.5402 25.7111 22.4158 25.8982 22.294 26.0949C22.0498 26.4897 21.7823 26.9783 21.5202 27.4849C20.9946 28.501 20.4603 29.6483 20.1278 30.3962C19.9035 30.9009 20.1308 31.4919 20.6355 31.7162C21.1402 31.9405 21.7312 31.7132 21.9555 31.2085C22.2772 30.4845 22.7943 29.3749 23.2966 28.4039C23.5485 27.9169 23.7893 27.4794 23.9947 27.1474C24.0978 26.9808 24.1838 26.8543 24.2508 26.7666C24.2851 26.7218 24.3063 26.698 24.3149 26.6885ZM95.6211 25.651C95.9378 25.1985 96.5613 25.0885 97.0138 25.4052C97.2155 25.5464 97.3758 25.7397 97.4832 25.88C97.6053 26.0396 97.7296 26.2267 97.8514 26.4234C98.0956 26.8182 98.3631 27.3068 98.6252 27.8134C99.1508 28.8295 99.6852 29.9768 100.018 30.7247C100.242 31.2294 100.015 31.8204 99.5099 32.0447C99.0052 32.269 98.4143 32.0417 98.19 31.537C97.8682 30.813 97.3511 29.7034 96.8488 28.7324C96.5969 28.2454 96.3562 27.8079 96.1507 27.4759C96.0476 27.3093 95.9616 27.1828 95.8946 27.0951C95.8603 27.0503 95.8391 27.0265 95.8305 27.017C95.4087 26.693 95.313 26.0911 95.6211 25.651ZM95.4187 48.0464C95.69 47.5654 96.3 47.3954 96.781 47.6668C97.8349 48.2613 98.8422 48.8724 99.6988 49.3921L99.8338 49.4739C100.741 50.0243 101.424 50.4347 101.84 50.6368C102.337 50.8781 102.544 51.4764 102.303 51.9732C102.062 52.47 101.463 52.6771 100.966 52.4358C100.445 52.1828 99.6651 51.7107 98.7966 51.184L98.6675 51.1057C97.8067 50.5835 96.8238 49.9872 95.7984 49.4087C95.3173 49.1374 95.1474 48.5274 95.4187 48.0464ZM24.0436 48.2071C24.3149 48.6881 24.145 49.298 23.6639 49.5694C21.5221 50.7776 19.6804 52.0834 18.9623 52.6462C18.5276 52.9869 17.8991 52.9108 17.5584 52.4761C17.2177 52.0414 17.2939 51.4128 17.7286 51.0721C18.524 50.4487 20.4494 49.0864 22.6813 47.8274C23.1623 47.5561 23.7722 47.726 24.0436 48.2071Z" fill="black"/>
</svg>
